<?xml version="1.0" encoding="utf-8"?>
<!-- Generator: Adobe Illustrator 24.1.2, SVG Export Plug-In . SVG Version: 6.00 Build 0)  -->
<svg version="1.1" id="Layer_1" xmlns="http://www.w3.org/2000/svg" xmlns:xlink="http://www.w3.org/1999/xlink" x="0px" y="0px"
	 viewBox="0 0 16 16" style="enable-background:new 0 0 16 16;" xml:space="preserve">
<style type="text/css">
	.st0{opacity:0.5;fill:#22CE5F;}
	.st1{fill-rule:evenodd;clip-rule:evenodd;fill:#22CE5F;}
	.st2{fill:#FFFFFF;}
</style>
<g>
	<ellipse class="st0" cx="10.3" cy="14.8" rx="2.1" ry="0.2"/>
	<g>
		<path class="st1" d="M6.7,1.2c2.6-0.7,5.2,0.8,6,3.3c0.3,0.9,0.3,1.9,0,2.8l-2.4,6.3L4.9,9.5C4.2,8.9,3.6,8.1,3.4,7.2
			C2.6,4.6,4.1,1.9,6.7,1.2z"/>
	</g>
</g>
<path class="st2" d="M8.3,3.6c-0.8,0.3-0.8,0.8-0.7,1C7.5,4.4,7.1,4,6.3,4.2C5.4,4.5,5.2,5.8,6,6.6c0.7,0.6,1.9,1,2.6,1.2
	C9,7.2,9.8,6.2,10,5.3C10.2,4.2,9.3,3.2,8.3,3.6z"/>
</svg>
